<?xml version="1.0" standalone="no"?>
<!DOCTYPE svg PUBLIC "-//W3C//DTD SVG 20010904//EN"
 "http://www.w3.org/TR/2001/REC-SVG-20010904/DTD/svg10.dtd">
<svg version="1.0" xmlns="http://www.w3.org/2000/svg"
 width="608.000000pt" height="608.000000pt" viewBox="0 0 608.000000 608.000000"
 preserveAspectRatio="xMidYMid meet">
<metadata>
Created by potrace 1.11, written by Peter Selinger 2001-2013
</metadata>
<g transform="translate(0.000000,608.000000) scale(0.100000,-0.100000)"
fill="#000000" stroke="none">
<path d="M2734 6055 c-368 -100 -662 -263 -1019 -564 -157 -133 -263 -233
-619 -586 -265 -262 -401 -393 -491 -470 -32 -27 -63 -55 -70 -62 -7 -7 -63
-53 -125 -102 l-112 -90 -32 34 c-40 42 -70 54 -120 49 -132 -12 -172 -186
-59 -255 26 -17 45 -20 82 -17 76 8 118 49 128 128 5 41 4 40 37 45 14 3 36 7
48 9 13 3 91 18 173 35 180 36 205 39 363 47 118 6 124 5 176 -20 52 -26 236
-189 258 -229 8 -15 1 -34 -35 -95 -46 -79 -129 -252 -142 -294 -4 -12 -11
-27 -15 -33 -9 -14 -42 -110 -79 -230 -35 -118 -73 -302 -87 -420 -17 -153
-23 -396 -13 -485 4 -30 10 -86 13 -123 4 -37 9 -85 12 -105 6 -41 11 -66 29
-154 8 -43 36 -153 45 -183 85 -271 183 -482 318 -689 47 -73 187 -261 219
-294 173 -182 233 -240 328 -315 33 -27 68 -54 77 -62 50 -41 196 -135 293
-189 102 -58 310 -155 338 -160 6 -1 17 -4 22 -7 9 -6 104 -39 130 -46 6 -1
51 -14 100 -29 50 -14 99 -27 110 -29 11 -1 38 -6 60 -11 22 -4 42 -9 45 -9 3
-1 19 -4 35 -8 104 -22 237 -32 450 -31 237 0 284 4 470 39 103 20 127 25 160
35 17 5 41 11 55 14 14 2 66 18 115 34 308 101 574 245 834 451 l81 63 -33 42
c-17 22 -41 50 -52 62 -22 23 -73 80 -144 163 -25 30 -53 62 -61 71 -16 17
-130 147 -166 190 -58 67 -260 299 -288 330 -31 33 -335 384 -387 444 -13 16
-39 45 -58 65 -18 20 -49 56 -70 80 -20 24 -47 56 -61 71 -14 15 -43 49 -65
74 -22 26 -49 58 -60 70 -11 13 -45 51 -75 86 -30 34 -71 80 -90 101 -87 96
-115 135 -97 137 13 1 90 27 122 42 11 5 54 21 95 35 41 15 118 42 170 61 149
55 233 85 260 94 14 4 57 20 95 35 39 14 90 33 115 41 25 8 54 19 65 24 11 5
54 21 95 35 84 29 175 63 205 75 11 5 43 16 70 25 28 8 59 20 70 25 11 5 85
32 165 60 80 28 154 56 165 61 11 4 79 29 150 54 72 26 139 50 150 55 25 11
57 20 69 19 5 0 12 3 15 8 3 4 49 23 101 41 182 64 265 94 268 97 5 4 -54 147
-100 242 -35 73 -81 156 -161 288 -12 19 -137 191 -167 229 -69 87 -256 279
-335 342 -22 19 -39 41 -40 55 -1 13 -6 24 -11 24 -15 1 -53 25 -134 84 -42
31 -112 81 -154 111 -43 30 -83 60 -89 65 -7 6 -32 26 -57 45 -25 19 -46 38
-48 42 -2 5 -8 8 -13 8 -5 0 -35 21 -67 46 -31 25 -64 51 -73 58 -9 7 -47 37
-85 67 -38 29 -109 85 -159 124 -157 124 -346 265 -356 265 -5 0 -9 5 -9 10 0
6 -6 10 -14 10 -8 0 -16 4 -18 8 -9 23 -385 252 -413 252 -8 0 -15 5 -15 10 0
6 -5 10 -10 10 -6 0 -42 16 -80 35 -39 19 -74 34 -78 35 -11 0 -106 32 -117
39 -5 3 -19 7 -30 8 -11 2 -31 7 -45 13 -14 5 -41 11 -60 14 -19 3 -46 8 -60
12 -14 3 -72 7 -130 10 -89 3 -119 0 -196 -21z m-1285 -1905 c-28 -38 -56 -73
-62 -77 -6 -4 -3 5 8 19 11 14 27 36 35 48 21 32 61 80 66 80 2 0 -19 -31 -47
-70z"/>
</g>
</svg>
