<?xml version="1.0" encoding="UTF-8" standalone="no"?>
<svg
   xmlns:dc="http://purl.org/dc/elements/1.1/"
   xmlns:cc="http://creativecommons.org/ns#"
   xmlns:rdf="http://www.w3.org/1999/02/22-rdf-syntax-ns#"
   xmlns:svg="http://www.w3.org/2000/svg"
   xmlns="http://www.w3.org/2000/svg"
   viewBox="0 0 37.415909 37.672867"
   height="37.672867"
   width="37.415909"
   id="svg138"
   version="1.1">
  <metadata
     id="metadata144">
    <rdf:RDF>
      <cc:Work
         rdf:about="">
        <dc:format>image/svg+xml</dc:format>
        <dc:type
           rdf:resource="http://purl.org/dc/dcmitype/StillImage" />
        <dc:title></dc:title>
      </cc:Work>
    </rdf:RDF>
  </metadata>
  <defs
     id="defs142" />
  <g
     transform="matrix(0.46005502,0,0,0.46005502,-156.48266,-16.793675)"
     id="g13645">
    <circle
       style="opacity:1;fill:#fab52f;fill-opacity:1;fill-rule:nonzero;stroke:none;stroke-width:0.39689675;stroke-miterlimit:4;stroke-dasharray:none;stroke-dashoffset:0;stroke-opacity:1"
       id="path9107"
       cx="237.65289"
       cy="74.037094"
       r="59.078861" />
    <ellipse
       style="opacity:1;fill:#000000;fill-opacity:1;fill-rule:nonzero;stroke:none;stroke-width:0.33282012;stroke-miterlimit:4;stroke-dasharray:none;stroke-dashoffset:0;stroke-opacity:1"
       id="path13617"
       cx="268.10593"
       cy="50.434326"
       rx="2.3389831"
       ry="5.9936442" />
    <path
       style="fill:#f5e9eb;fill-opacity:1;stroke:none;stroke-width:1px;stroke-linecap:butt;stroke-linejoin:miter;stroke-opacity:1"
       d="m 186.95448,42.511208 c 32.70092,-8.609888 59.32646,-12.25929 87.95048,-14.8509 l -8.16446,-5.889566 c -24.03656,3.275715 -51.28528,1.980596 -72.30888,11.086319 z"
       id="path13621" />
    <path
       style="fill:none;stroke:#ada8a1;stroke-width:1px;stroke-linecap:butt;stroke-linejoin:miter;stroke-opacity:1"
       d="m 186.95448,42.511208 c 27.52093,-8.840561 57.01375,-12.96208 88.03482,-14.802351 -30.62443,2.383385 -60.12776,6.401948 -88.03482,14.802351 z"
       id="path13625" />
    <path
       style="fill:#9b1517;fill-opacity:1;stroke:none;stroke-width:1px;stroke-linecap:butt;stroke-linejoin:miter;stroke-opacity:1"
       d="m 186.95448,42.511208 c 3.8017,-6.730838 8.73332,-8.992293 14.12808,-11.740476 19.74298,-4.92372 43.99124,-5.999993 65.65794,-8.99999 C 252.52558,11.285566 236.87029,-4.2839712 220.87008,-3.9586758 196.2018,0.63001751 183.06676,24.517188 162.3029,39.583232 c 4.91709,-0.937529 10.77916,-2.61644 17.0821,-2.546081 2.61302,-0.150164 5.59656,3.703898 7.56948,5.474057 z"
       id="path13635" />
    <circle
       style="opacity:1;fill:#f5e9eb;fill-opacity:1;fill-rule:nonzero;stroke:#a5a29f;stroke-width:0.60000002;stroke-miterlimit:4;stroke-dasharray:none;stroke-dashoffset:0;stroke-opacity:1"
       id="path13637"
       cx="160.17091"
       cy="40.057472"
       r="2.8426592" />
  </g>
  <g
     transform="matrix(0.27482466,0,0,0.27482466,-43.155237,1.0893202)"
     id="g13659">
    <g
       id="g13686">
      <path
         style="opacity:1;fill:#fab52f;fill-opacity:1;fill-rule:nonzero;stroke:none;stroke-width:0.39689675;stroke-miterlimit:4;stroke-dasharray:none;stroke-dashoffset:0;stroke-opacity:1"
         id="circle13647"
         d="m 276.49185,118.55504 a 59.078861,59.078861 0 0 1 -69.86213,5.76003 59.078861,59.078861 0 0 1 -26.18563,-65.024677 59.078861,59.078861 0 0 1 54.35676,-44.263279 59.078861,59.078861 0 0 1 58.37206,38.814931 l -55.52002,20.195049 z" />
      <ellipse
         style="opacity:1;fill:#000000;fill-opacity:1;fill-rule:nonzero;stroke:none;stroke-width:0.33282012;stroke-miterlimit:4;stroke-dasharray:none;stroke-dashoffset:0;stroke-opacity:1"
         id="ellipse13649"
         cx="268.10593"
         cy="50.434326"
         rx="2.3389831"
         ry="5.9936442" />
      <path
         style="fill:#f5e9eb;fill-opacity:1;stroke:none;stroke-width:1px;stroke-linecap:butt;stroke-linejoin:miter;stroke-opacity:1"
         d="m 186.95448,42.511208 c 32.70092,-8.609888 59.32646,-12.25929 87.95048,-14.8509 l -8.16446,-5.889566 c -24.03656,3.275715 -51.28528,1.980596 -72.30888,11.086319 z"
         id="path13651" />
      <path
         style="fill:none;stroke:#ada8a1;stroke-width:1px;stroke-linecap:butt;stroke-linejoin:miter;stroke-opacity:1"
         d="m 186.95448,42.511208 c 27.52093,-8.840561 57.01375,-12.96208 88.03482,-14.802351 -30.62443,2.383385 -60.12776,6.401948 -88.03482,14.802351 z"
         id="path13653" />
      <path
         style="fill:#9b1517;fill-opacity:1;stroke:none;stroke-width:1px;stroke-linecap:butt;stroke-linejoin:miter;stroke-opacity:1"
         d="m 186.95448,42.511208 c 3.8017,-6.730838 8.73332,-8.992293 14.12808,-11.740476 19.74298,-4.92372 43.99124,-5.999993 65.65794,-8.99999 C 252.52558,11.285566 236.87029,-4.2839712 220.87008,-3.9586758 196.2018,0.63001751 183.06676,24.517188 162.3029,39.583232 c 4.91709,-0.937529 10.77916,-2.61644 17.0821,-2.546081 2.61302,-0.150164 5.59656,3.703898 7.56948,5.474057 z"
         id="path13655" />
      <circle
         style="opacity:1;fill:#f5e9eb;fill-opacity:1;fill-rule:nonzero;stroke:#a5a29f;stroke-width:0.60000002;stroke-miterlimit:4;stroke-dasharray:none;stroke-dashoffset:0;stroke-opacity:1"
         id="circle13657"
         cx="160.17091"
         cy="40.057472"
         r="2.8426592" />
    </g>
  </g>
  <g
     id="g848"
     transform="matrix(0.27482466,0,0,0.27482466,-43.155237,1.0893202)">
    <g
       id="g846">
      <path
         d="m 276.49185,118.55504 a 59.078861,59.078861 0 0 1 -69.86213,5.76003 59.078861,59.078861 0 0 1 -26.18563,-65.024677 59.078861,59.078861 0 0 1 54.35676,-44.263279 59.078861,59.078861 0 0 1 58.37206,38.814931 l -55.52002,20.195049 z"
         id="path834"
         style="opacity:1;fill:#fab52f;fill-opacity:1;fill-rule:nonzero;stroke:none;stroke-width:0.39689675;stroke-miterlimit:4;stroke-dasharray:none;stroke-dashoffset:0;stroke-opacity:1" />
      <ellipse
         ry="5.9936442"
         rx="2.3389831"
         cy="50.434326"
         cx="268.10593"
         id="ellipse836"
         style="opacity:1;fill:#000000;fill-opacity:1;fill-rule:nonzero;stroke:none;stroke-width:0.33282012;stroke-miterlimit:4;stroke-dasharray:none;stroke-dashoffset:0;stroke-opacity:1" />
      <path
         id="path838"
         d="m 186.95448,42.511208 c 32.70092,-8.609888 59.32646,-12.25929 87.95048,-14.8509 l -8.16446,-5.889566 c -24.03656,3.275715 -51.28528,1.980596 -72.30888,11.086319 z"
         style="fill:#f5e9eb;fill-opacity:1;stroke:none;stroke-width:1px;stroke-linecap:butt;stroke-linejoin:miter;stroke-opacity:1" />
      <path
         id="path840"
         d="m 186.95448,42.511208 c 27.52093,-8.840561 57.01375,-12.96208 88.03482,-14.802351 -30.62443,2.383385 -60.12776,6.401948 -88.03482,14.802351 z"
         style="fill:none;stroke:#ada8a1;stroke-width:1px;stroke-linecap:butt;stroke-linejoin:miter;stroke-opacity:1" />
      <path
         id="path842"
         d="m 186.95448,42.511208 c 3.8017,-6.730838 8.73332,-8.992293 14.12808,-11.740476 19.74298,-4.92372 43.99124,-5.999993 65.65794,-8.99999 C 252.52558,11.285566 236.87029,-4.2839712 220.87008,-3.9586758 196.2018,0.63001751 183.06676,24.517188 162.3029,39.583232 c 4.91709,-0.937529 10.77916,-2.61644 17.0821,-2.546081 2.61302,-0.150164 5.59656,3.703898 7.56948,5.474057 z"
         style="fill:#9b1517;fill-opacity:1;stroke:none;stroke-width:1px;stroke-linecap:butt;stroke-linejoin:miter;stroke-opacity:1" />
      <circle
         r="2.8426592"
         cy="40.057472"
         cx="160.17091"
         id="circle844"
         style="opacity:1;fill:#f5e9eb;fill-opacity:1;fill-rule:nonzero;stroke:#a5a29f;stroke-width:0.60000002;stroke-miterlimit:4;stroke-dasharray:none;stroke-dashoffset:0;stroke-opacity:1" />
    </g>
  </g>
</svg>
