<svg xmlns="http://www.w3.org/2000/svg" viewBox="0 0 108.73 79.42"><title>tre</title><g id="Layer_2" data-name="Layer 2"><g id="Layer_1-2" data-name="Layer 1"><g id="Ebene_1" data-name="Ebene 1"><path d="M49.8,79.42.46,75.65,0,48,49.6,13.7l20.34.3,38.39,27.27.31,32.41L70,78.82ZM1.64,74.54l48.19,3.69,20-.6,37.57-5-.29-30.75L69.56,15.19,50,14.89,1.2,48.58Z"/><path d="M1.06,48.65.14,47.9,9.41,36.68h.88c.9-2.2,5.6-12.63,12.78-11L56.73,0H61L92.85,24.22l2.45,3a3,3,0,0,1,1.54,1.41,1.26,1.26,0,0,1,.12.45l2.9-.44v3l2.83.44v4.58l-.65.94-1-.69.44-.62v-3.2l-2.83-.44V30.06l-3.38.5.44-1a.55.55,0,0,0,0-.45,2.11,2.11,0,0,0-1-.83l-.15-.06L92,25,60.6,1.19H57.13L23.34,26.92l-.28-.07c-7-1.84-11.77,10.51-11.81,10.64l-.15.38H10Z"/><path d="M108.59,41.57h-1.18V29.64c-.64-.11-2.53-.18-8.12.59l-.16-1.17c9-1.25,9.32-.46,9.54.06a.75.75,0,0,1-.08.74Z"/><path d="M25.86,30.17a3.79,3.79,0,0,0-2.77-3.37l-3.52-1,3.65-.19a63.32,63.32,0,0,0,6.58-.58l.76-.21v2.87h-1.2V26.34c-1,.14-2.68.27-4,.36A5,5,0,0,1,27,30.08Z"/><path d="M10.13,42.22,9,42.11A17.87,17.87,0,0,1,10.18,37l1.1.45A16.92,16.92,0,0,0,10.13,42.22Z"/><path d="M72.4,78H71.21l0-56.74-1-.53L67,20.55l-1.32-.24V19.22l.68-1.34H71L73,19.19V20.7l-.59.45ZM67,19.34l.18,0,3.32.15,1.28.64.06-.05v-.27l-1.21-.77H67.13Z"/><rect x="37.63" y="48.5" width="58.26" height="1.19" transform="translate(17.01 115.37) rotate(-89.44)"/><polygon points="0.92 49.97 0.28 48.96 48.85 17.88 70.97 17.88 108.08 42.41 107.42 43.4 70.61 19.07 49.2 19.07 0.92 49.97"/><path d="M11.9,40.82l-1.14-.32c.09-.34,2.36-8.38,6.5-11.5.33-.33,2.54-2.49,5-2.1,1.52.24,2.77,1.38,3.72,3.39l-1.08.51c-.76-1.63-1.71-2.55-2.82-2.72-2-.32-4,1.76-4,1.78l-.08.07C14.17,32.78,11.93,40.74,11.9,40.82Z"/><path d="M47.83,78.83l-.14-57.38-.6-.45V19.49l2.07-1.32h4.56l.68,1.35v1.07l-1.24.25L49.93,21l-1,.53L49,78.82Zm.46-58.42.06.05,1.28-.64,3.49-.18L53,19.36H49.5l-1.21.78Z"/><rect x="52.83" y="20.25" width="1.19" height="58.42" transform="translate(-0.63 0.69) rotate(-0.74)"/><rect x="95.57" y="29.94" width="1.19" height="3.29" transform="translate(-0.83 2.64) rotate(-1.56)"/><path d="M92.3,28.93,91.58,28a1.18,1.18,0,0,1,.45-.22,21.89,21.89,0,0,1,3-.48l.1,1.19A19.47,19.47,0,0,0,92.3,28.93Z"/><path d="M92.43,30.33l-1.18,0,.14-4.2c0-.16.07-.53-.06-.66s-.47-.15-1.14,0L88,26l0,1.12-1.18,0v-2.2h.07l.1-2.42a.72.72,0,0,0,0-.5s-.23-.09-.77.07l-3.44.47.07.64-1.18.13-.13-1.08.58-.84,3.86-.49a1.79,1.79,0,0,1,1.87.28,1.7,1.7,0,0,1,.28,1.6l-.07,2,1.88-.42a2.24,2.24,0,0,1,2.28.27,1.89,1.89,0,0,1,.38,1.75Z"/><path d="M81.67,23l-.15-4.32c0-.42-.08-1-.3-1.14s-.41,0-.78.15l-.2.06-3.65.39V19H75.41V17l4.6-.5a1.86,1.86,0,0,1,1.87,0,2.55,2.55,0,0,1,.82,2.14l.15,4.26Z"/><path d="M76.15,18.49l-1.19,0,.15-4.92c0-.27-.18-1-.54-1.18s-.77,0-1.11.22l-.16.06-3.16.71,2.36,2.52-.88.81-3.76-4L73,11.49a2.22,2.22,0,0,1,2.19-.17,2.79,2.79,0,0,1,1.14,2.21Z"/><rect x="63.25" y="-0.05" width="1.19" height="15.12" transform="translate(2.38 26.35) rotate(-23.75)"/><rect x="47.65" y="6.78" width="14.22" height="1.19" transform="translate(31.07 57.29) rotate(-72.28)"/><path d="M61.27,13.64h-3.4V7.15l3.4-.2Zm-2.21-1.19h1V8.21l-1,.06Z"/><path d="M56.33,14.32,56,6.61l.2-.18A5.42,5.42,0,0,1,59.86,5a4,4,0,0,1,2.89,1.65l.13.16.16,7.5-1.19,0L61.7,7.22a2.81,2.81,0,0,0-1.92-1.06,4,4,0,0,0-2.54,1l.28,7.15Z"/><path d="M42.22,19.15,42,13.69l.09-.14c.76-1.33,1.51-2,2.31-2a1.4,1.4,0,0,1,1.08.53L50,13l-3.43,4.23-.92-.75L47.8,13.8l-3-.61L44.64,13h0s-.11-.16-.24-.16h0s-.47,0-1.18,1.21l.18,5.1Z"/><path d="M35.79,24.2h-1.2v-5l.07-.12c.47-.94,1-1.46,1.7-1.55a1.61,1.61,0,0,1,1.17.35l4.6.36-3.2,4.22L38,21.77l1.88-2.5L37,19.05l-.16-.18h0a.52.52,0,0,0-.32-.14c-.08,0-.36.11-.72.78Z"/><rect x="53.8" y="61.81" width="12.51" height="1.19" transform="translate(-0.36 0.35) rotate(-0.33)"/><polygon points="56.27 78.62 56.02 65.11 64.83 65.11 64.83 78.28 63.64 78.28 63.64 66.3 57.24 66.3 57.47 78.59 56.27 78.62"/><polygon points="76.7 77.11 75.84 21.07 78.98 23.18 78.32 24.17 77.06 23.32 77.89 77.09 76.7 77.11"/><path d="M80.19,76.65l-.61-51.09.51-.07L81.16,25a1.17,1.17,0,0,1,.07.88,1.22,1.22,0,0,1-.45.6l.6,50.15Z"/><path d="M86.13,75.93l-.45-46.38.69.11c.49.08.63,0,.63,0a.19.19,0,0,0-.07.12L88,29.26a1.15,1.15,0,0,1-.1,1.16,1.32,1.32,0,0,1-1,.46l.44,45Z"/><polygon points="83.62 76.19 82.53 25.75 86.19 27.95 85.58 28.96 83.77 27.88 84.81 76.17 83.62 76.19"/><path d="M91.77,75.38,90.65,33.29l.54-.07a.33.33,0,0,0,.23-.38l1.16-.23a1.51,1.51,0,0,1-.71,1.61L93,75.34Z"/><polygon points="88.9 75.42 88.06 29.14 91.07 31.09 90.43 32.09 89.28 31.35 90.09 75.4 88.9 75.42"/><rect x="93.5" y="33.66" width="1.19" height="40.99" transform="translate(-0.95 1.69) rotate(-1.02)"/><path d="M95.86,74.55c-.46-37.69-.24-37.92,0-38.15a.78.78,0,0,1,.51-.25c0-.11,0-.26.08-.48l1.18.17c-.11.77-.24,1.23-.59,1.44l-.19.09c-.12,3.3.07,23.53.23,37.16Z"/><rect x="97.66" y="36.6" width="1.19" height="37.54" transform="translate(-0.15 0.27) rotate(-0.16)"/><path d="M100.59,74H99.4V38.38l.85.42s.14-.12.33-.54l1.08.51a2.05,2.05,0,0,1-1.07,1.13h0Z"/><rect x="84.73" y="55.83" width="34.91" height="1.19" transform="translate(45.42 158.43) rotate(-89.81)"/><path d="M103.48,73.68l-.07-31.88a.54.54,0,0,1,0-.18l.35,0-.22-.15a9.6,9.6,0,0,0,.31-1l1.14.33A7.64,7.64,0,0,1,104.6,42l.07,31.65Zm.58-32,.53,0a.6.6,0,0,0-.43-.43Z"/><path d="M105.46,73.38l-.27-30.82.79.27s.11-.1.07-.55l1.18-.11a1.7,1.7,0,0,1-.48,1.61,1,1,0,0,1-.36.19l.26,29.4Z"/><rect x="40.72" y="23.64" width="1.19" height="54.22" transform="translate(-0.62 0.51) rotate(-0.7)"/><path d="M36.53,77.56l-.76-46.87a3.36,3.36,0,0,1-1.84-1.34,2,2,0,0,1-.14-1.66l1.14.37a.81.81,0,0,0,0,.7,2.62,2.62,0,0,0,1.52.9l.46.11.77,47.77Z"/><rect x="31.37" y="29.7" width="1.19" height="47.64" transform="translate(-0.95 0.58) rotate(-1.02)"/><path d="M28.33,77l-1-41.7A2.53,2.53,0,0,1,26,33.53a2.06,2.06,0,0,1,1.26-1.78l.6,1c-.43.25-.67.51-.67.71s.58.77,1,1l.31.16V35l1.05,42Z"/><rect x="24.25" y="34.33" width="1.19" height="42.7" transform="translate(-1.3 0.6) rotate(-1.35)"/><path d="M21.57,76.44l-.85-36.56a2.18,2.18,0,0,1-1.29-1.41c-.17-.78.24-1.6,1.22-2.45l.78.91c-.6.51-.9,1-.84,1.28s.63.62.89.69l.41.13v.43l.86,36.95Z"/><rect x="17.86" y="38.81" width="1.19" height="37.76" transform="translate(-1.64 0.55) rotate(-1.64)"/><path d="M15.42,76l-.79-32.51a1.66,1.66,0,0,1-1.2-1.05c-.35-1.07.73-2.24.85-2.37l.86.83c-.29.31-.67.9-.58,1.17s.25.27.75.36l.48.08L16.61,76Z"/><rect x="12.63" y="41.69" width="1.19" height="34.33" transform="translate(-1.17 0.27) rotate(-1.14)"/><path d="M10.61,75.63l-.2-30c-.49-.27-1.24-.81-1.25-1.6,0-1,1.26-1.59,1.67-1.77l.48,1.09c-.8.35-1,.62-1,.67s.46.51.88.69l.36.15.21,30.72Z"/><rect x="8.48" y="44.24" width="1.19" height="31.29" transform="translate(-0.63 0.1) rotate(-0.61)"/><path d="M6.69,75.41,6.41,48a2.07,2.07,0,0,1-.86-1.51,2,2,0,0,1,1.13-1.68l.64,1c-.37.23-.58.47-.58.66s.39.6.57.71l.28.17v.33l.28,27.72Z"/><rect x="4.49" y="46.74" width="1.19" height="28.58" transform="translate(-0.24 0.02) rotate(-0.23)"/><path d="M2.71,75.19l0-25.35a1.4,1.4,0,0,1-.81-1.06c-.08-.94,1-1.56,1.41-1.77l.58,1.05c-.74.4-.8.63-.8.63a2.17,2.17,0,0,0,.4.21l.4.14v.42l0,25.73Z"/><path d="M65,55.87H55.21L55,20.71H65.12Zm-8.61-1.19h7.42l.12-32.78H56.17Z"/></g><rect x="19.13" y="64.11" width="2.55" height="1.19" transform="translate(-6.68 2.5) rotate(-6.03)"/><rect x="13.78" y="64.78" width="1.75" height="1.19" transform="translate(-6.58 1.83) rotate(-5.84)"/><rect x="9.45" y="65.29" width="1.22" height="1.19" transform="translate(-11.84 2.94) rotate(-10.5)"/><rect x="5.54" y="65.9" width="1.12" height="1.19" transform="translate(-5.28 0.7) rotate(-4.57)"/><rect x="1.35" y="65.85" width="1.38" height="1.19" transform="translate(-4.3 0.27) rotate(-3.72)"/><rect x="25.22" y="63.34" width="3.09" height="1.19" transform="translate(-10.48 5.48) rotate(-9.79)"/><rect x="32.47" y="62.55" width="4.77" height="1.19" transform="translate(-8.04 5.16) rotate(-7.59)"/><rect x="41.33" y="61.6" width="6.84" height="1.19" transform="translate(-1.87 1.39) rotate(-1.74)"/><rect x="73.79" y="60.14" width="1.19" height="4.82" transform="translate(8.72 134.21) rotate(-87.56)"/><rect x="81.8" y="61.5" width="1.19" height="3.04" transform="translate(11.38 138.63) rotate(-84.21)"/><rect x="87.26" y="62.42" width="1.19" height="2.07" transform="translate(14.01 142.77) rotate(-82.89)"/><rect x="92.43" y="62.89" width="1.19" height="1.74" transform="translate(26.53 154.85) rotate(-88.3)"/><rect x="96.53" y="63.4" width="1.19" height="1.54" transform="translate(29.73 159.08) rotate(-88.07)"/><rect x="100.47" y="63.49" width="1.19" height="1.77" transform="translate(17.08 149.85) rotate(-78)"/></g></g></svg>