<svg xmlns="http://www.w3.org/2000/svg" viewBox="0 0 642.4 185.82"><defs><style>.cls-1{fill:none;}</style></defs><title>schloss</title><g id="Layer_2" data-name="Layer 2"><g id="Layer_1-2" data-name="Layer 1"><g id="Ebene_8" data-name="Ebene 8"><polygon class="cls-1" points="640.4 183.46 640.7 102.48 584.41 54.89 571.41 53.79 504.02 86.08 379.94 81.48 374.2 73.02 375.55 69.69 337.06 60.09 335.03 39.7 337.66 36.2 333.66 33.53 336.53 30.2 330.36 23.53 323.69 30.03 326.81 34.2 320.53 36.53 325.16 40.2 324.56 56.53 324.56 61.36 286.08 69.41 281.57 81.48 156.5 86.08 84.09 51.59 67.61 52.69 5.55 97.38 8.35 102.7 8.82 183.61 640.4 183.46"/><path d="M274.47,185.17,160.86,185l1-61.26,112.64-1.25ZM164.92,181l105.55.19V126.5l-104.71,1.15Z"/><path d="M639.41,104,583.6,56.83l-11.81-1-67.5,32.55-1.73-3.6,68-32.79a2,2,0,0,1,1-.19l13,1.1a2,2,0,0,1,1.12.46L642,101Z"/><path d="M640.36,103.88l-107.18-2.1a2,2,0,0,1-1.48-3.3c.29-.34,28.77-33.65,35.61-44.59L570.7,56c-5.79,9.26-25.82,33.12-33.22,41.85l103,2Z"/><path d="M581.41,122l-11.9-.9V106.42l11.9.9Zm-7.9-4.61,3.9.3V111l-3.9-.29Z"/><path d="M605.6,122.1l-12-.75V106.52l12,.9Zm-8-4.5,4,.25v-6.72l-4-.3Z"/><path d="M628.7,123.5l-12-.75V107.92l12,.9Zm-8-4.5,4,.25v-6.72l-4-.3Z"/><path d="M557.21,120.83l-11.89-.9V105.12l11.89.9Zm-7.89-4.61,3.89.3v-6.79l-3.89-.29Z"/><path d="M557.61,177.16H545.72V157.87h11.89Zm-7.89-4h3.89V161.87h-3.89Z"/><path d="M582.21,176.56h-11.9V157.27h11.9Zm-7.9-4h3.9V161.27h-3.9Z"/><path d="M606.21,176.76h-11.9V157.47h11.9Zm-7.9-4h3.9V161.47h-3.9Z"/><path d="M628.6,177.06H616.7V157.77h11.9Zm-7.9-4h3.9V161.77h-3.9Z"/><path d="M558.28,149.47H545.12v-22l.58-.59c2.26-2.26,8-1.12,10.4-.53l1.47.37Zm-9.16-4h5l-.49-15.57a16.88,16.88,0,0,0-4.54-.34Z"/><path d="M583.27,150.07H570.11V128l.59-.58c2.25-2.26,8-1.12,10.39-.53l1.47.37Zm-9.16-4h5l-.49-15.57a16.93,16.93,0,0,0-4.55-.34Z"/><path d="M607.77,151.07h-13l-.12-22,.59-.59c2.26-2.26,8-1.12,10.4-.53l1.47.37Zm-9.07-4h4.94l-.49-15.57a16.88,16.88,0,0,0-4.54-.34Z"/><path d="M630.46,152.27H617.3v-22l.59-.59c2.25-2.26,8-1.12,10.4-.53l1.46.37Zm-9.16-4h5l-.49-15.57a16.93,16.93,0,0,0-4.55-.34Z"/><rect x="483.49" y="99.23" width="31.67" height="4" transform="translate(231.08 534.37) rotate(-69.69)"/><path d="M504,88.08,377.9,83.54l-.56-.85c-5.78-8.66-5.55-10.85-5.13-11.79l-37.1-9.25V57.88l.16-.37c.06-.14.11-.3.16-.45l-1.42.3V38.15l.73-.6c.41-.34.82-.7,1.19-1-.65-.42-1.44-.9-2.12-1.29l-1-.58V31.46l.7-.7a16.57,16.57,0,0,0-2.85-4.36l-2.45,1.17V0h4V22.67c2.54,1.28,4.7,5.79,5.54,7.73l.53,1.25-1,1c3.34,2,3.52,2.72,3.52,3.65,0,.69,0,1.34-2.8,3.74V53.17a2.83,2.83,0,0,1,.89.72c1.15,1.39.69,3.44.26,4.65l39.64,9.88-2.63,4.07a45.82,45.82,0,0,0,3.94,7.13l124,4.46Z"/><path d="M156.57,88.08l-.15-4,124-4.46a45.82,45.82,0,0,0,3.94-7.13l-2.63-4.07,39.64-9.88c-.43-1.21-.89-3.26.26-4.65a2.83,2.83,0,0,1,.89-.72V40c-2.8-2.4-2.8-3-2.8-3.74,0-.93.18-1.61,3.52-3.65l-1-1,.53-1.25c.84-1.94,3-6.45,5.54-7.73V4h4V27.57l-2.45-1.17A16.17,16.17,0,0,0,327,30.76l.7.7v3.19l-1,.58c-.74.42-1.5.89-2.12,1.29.37.33.78.69,1.19,1l.73.6V57.36l-1.42-.3c.05.16.11.32.16.45l.16.37v3.77l-37.1,9.25c.42.94.65,3.13-5.13,11.79l-.56.85Z"/><polygon points="161.93 116.49 149.6 84.08 157 84.08 157 88.08 155.4 88.08 165.66 115.06 161.93 116.49"/><polygon points="642.4 185.47 529 185.16 529.89 105.19 517.35 108.98 495.83 116.31 496.03 183.26 492.03 183.27 491.82 113.44 516.69 104.98 516.92 104.98 533.95 99.77 533.04 181.17 638.39 181.46 638.3 101.98 642.3 101.98 642.4 185.47"/><path d="M10.83,183.61h-4V151.17l-.49-50.06L0,98.91l3.13-2.25L66.44,51.07l.46-.34,16.86-1.21L127.08,98.7l38.83,15.43-1,68.86-4-.06,1-66.1-37.15-14.77-.32-.36L82.06,53.65l-13.74,1-59.73,43,1.72.59.52,52.9Z"/><path d="M109.61,120.18H97.71v-15.3h11.9Zm-7.9-4h3.9v-7.3h-3.9Z"/><path d="M84.61,120.58H72.71v-15.3h11.9Zm-7.9-4h3.9v-7.3h-3.9Z"/><path d="M59.12,122.28H47.22V107h11.9Zm-7.9-4h3.9V111h-3.9Z"/><path d="M35.32,122.78H23.42v-15.3h11.9Zm-7.9-4h3.9v-7.3h-3.9Z"/><path d="M108.91,179.46H97V160.17h11.9Zm-7.9-4h3.9V164.17H101Z"/><path d="M84.61,179.46H72.71V160.17h11.9Zm-7.9-4h3.9V164.17h-3.9Z"/><path d="M59.12,179.46H47.22V160.17h11.9Zm-7.9-4h3.9V164.17h-3.9Z"/><path d="M35.32,180.06H23.42V160.77h11.9Zm-7.9-4h3.9V164.77h-3.9Z"/><path d="M110.17,151.17H97v-22l.58-.59c2.26-2.26,8-1.12,10.4-.53l1.47.37Zm-9.16-4h5l-.49-15.57a16.88,16.88,0,0,0-4.54-.34Z"/><path d="M85.27,151.67H72.11v-22l.59-.59c2.26-2.26,8-1.12,10.4-.53l1.46.37Zm-9.16-4h5l-.49-15.57a16.93,16.93,0,0,0-4.55-.34Z"/><path d="M59.78,152.27H46.62v-22l.58-.59c2.26-2.26,8-1.12,10.4-.53l1.47.37Zm-9.16-4h5l-.48-15.57a16.93,16.93,0,0,0-4.55-.34Z"/><path d="M35.48,152.87H22.32v-22l.59-.58c2.25-2.26,8-1.12,10.4-.53l1.46.37Zm-9.16-4h5l-.49-15.57a16.93,16.93,0,0,0-4.55-.34Z"/><rect x="270.43" y="110.16" width="4" height="44.89" transform="translate(-0.3 0.62) rotate(-0.13)"/><polygon points="274.47 181.56 270.47 181.56 270.47 153.13 329.68 151.37 329.76 151.37 384.25 154.16 384.25 109.28 388.25 109.28 388.25 158.37 329.64 155.37 274.47 157.01 274.47 181.56"/><rect x="384.25" y="156.27" width="4" height="25.4"/><polygon points="388.25 110.98 384.25 110.98 384.25 104.07 385.91 101.58 383.15 101.58 383.15 89.78 363.25 89.74 343.95 85.74 344.76 81.82 363.86 85.78 387.15 85.78 387.15 97.58 393.39 97.58 388.25 105.28 388.25 110.98"/><path d="M274.37,112.08h-4v-7.93L265.91,97l24,.69c4.07-3.06,27.61-20.38,39.74-20.38,12.68,0,34.26,17.15,38.11,20.3H384v4H366.33l-.56-.47c-.24-.19-23.89-19.83-36.11-19.83-9.69,0-30.62,14.43-37.87,20l-.57.43-18-.52,1.13,1.83Z"/><rect x="290.67" y="97.58" width="76.98" height="4"/><polygon points="276.17 98.48 272.17 98.48 272.17 84.08 294.45 84.08 314.74 81.8 315.19 85.77 294.57 88.08 276.17 88.08 276.17 98.48"/><path d="M284.67,181.66h-4V109l11.82-.63c1.73-1.36,8.44-2.37,37.67-2.37v4c-17,0-25.79.4-30.36.79l2.31,1.08-17.44.92Z"/><path d="M379.75,181.66h-4V112.78l-18.08-.94,2.43-1.07c-4.72-.4-13.76-.79-31-.79v-4c29.88,0,36.77,1,38.55,2.37l12.14.63Z"/><path d="M185.59,145.27h-11.9v-13.1h11.9Zm-7.9-4h3.9v-5.1h-3.9Z"/><path d="M214.48,145.77h-11.9v-13.1h11.9Zm-7.9-4h3.9v-5.1h-3.9Z"/><path d="M240.58,145.77h-11.9v-13.1h11.9Zm-7.9-4h3.9v-5.1h-3.9Z"/><path d="M264.27,145.77H252.38v-13.1h11.89Zm-7.89-4h3.89v-5.1h-3.89Z"/><path d="M408,148.07H396.15V135H408Zm-7.89-4H404V139h-3.89Z"/><path d="M431.84,147.47h-11.9v-13.1h11.9Zm-7.9-4h3.9v-5.1h-3.9Z"/><path d="M457.33,148.07H445.44V135h11.89Zm-7.89-4h3.89V139h-3.89Z"/><path d="M482.83,147h-11.9V133.9h11.9Zm-7.9-4h3.9v-5.1h-3.9Z"/><path d="M215.58,177.46H203.69V158.17h11.89Zm-7.89-4h3.89V162.17h-3.89Z"/><path d="M230.88,177.46H219V158.17h11.9Zm-7.9-4h3.9V162.17H223Z"/><path d="M339.56,183.78l-19.8-.13V165.27c0-2.09,1.25-5.2,4.7-5.2h10.28a4.13,4.13,0,0,1,3,.92,5.94,5.94,0,0,1,1.8,4.78Zm-15.8-4.1,11.8.07v-14c0-1.39-.36-1.7-.36-1.7H324.46c-.69,0-.7,1.15-.7,1.2Z"/><path d="M356.36,178.36h-10.1V158.77h10.1Zm-6.1-4h2.1V162.77h-2.1Z"/><path d="M313.16,177.66H302.07V158.17h11.09Zm-7.09-4h3.09V162.17h-3.09Z"/><path d="M297.27,178.26h-10.6V158.77h10.6Zm-6.6-4h2.6V162.77h-2.6Z"/><path d="M329.36,125.38a6.8,6.8,0,1,1,6.8-6.8h0A6.82,6.82,0,0,1,329.36,125.38Zm0-9.6a2.8,2.8,0,1,0,2.8,2.8h0A2.8,2.8,0,0,0,329.36,115.78Z"/><path d="M368.45,125.88a6.2,6.2,0,1,1,6.2-6.2A6.21,6.21,0,0,1,368.45,125.88Zm0-8.4a2.2,2.2,0,1,0,2.2,2.2,2.19,2.19,0,0,0-2.2-2.2Z"/><path d="M292.07,126.47a6.2,6.2,0,1,1,6.2-6.2h0A6.2,6.2,0,0,1,292.07,126.47Zm0-8.39a2.2,2.2,0,1,0,2.2,2.2,2.19,2.19,0,0,0-2.2-2.2Z"/><path d="M314.06,150.47H303.37v-20.4h10.69Zm-6.69-4h2.69v-12.4h-2.69Z"/><path d="M297.27,151.17h-9.9v-20.4h9.9Zm-5.9-4h1.9v-12.4h-1.9Z"/><path d="M355.75,150.87H345.36v-20.6h10.39Zm-6.39-4h2.39v-12.6h-2.39Z"/><path d="M373.55,151.37h-9.8V131h9.8Zm-5.8-4h1.8V135h-1.8Z"/><path d="M335.66,149.67h-12.5v-20.4h12.5Zm-8.5-4h4.5v-12.4h-4.5Z"/><path d="M356.55,124.27H344.36V113.18h12.19Zm-8.19-4h4.19v-3.09h-4.19Z"/><rect x="337.66" y="106.08" width="7.9" height="4"/><rect x="314.36" y="106.08" width="7.4" height="4"/><rect x="296.87" y="108.38" width="4.5" height="4"/><rect x="359.15" y="108.38" width="4.5" height="4"/><rect x="380.05" y="80.27" width="4" height="9.2" transform="translate(42.56 279.58) rotate(-42.36)"/><rect x="273.52" y="81.75" width="8.71" height="4" transform="translate(-2.33 159.34) rotate(-31.87)"/><rect x="438.16" y="72.69" width="4" height="107.79" transform="translate(306.22 564.56) rotate(-89.04)"/><path d="M246.78,177.46h-11.9V158.17h11.9Zm-7.9-4h3.9V162.17h-3.9Z"/><path d="M262.07,177.46H250.18V158.17h11.89Zm-7.89-4h3.89V162.17h-3.89Z"/><path d="M183.89,177.46H172V158.17h11.9Zm-7.9-4h3.9V162.17H176Z"/><path d="M199.19,177.46h-11.9V158.17h11.9Zm-7.9-4h3.9V162.17h-3.9Z"/><path d="M374.55,178.56h-10V158.77h10Zm-6-4h2V162.77h-2Z"/><path d="M314.76,125.17H303.37v-12h11.39Zm-7.39-4h3.39v-4h-3.39Z"/><path d="M437.94,178.46H426V159.17h11.9Zm-7.9-4h3.9V163.17H430Z"/><path d="M453.14,178.46h-11.9V159.17h11.9Zm-7.9-4h3.9V163.17h-3.9Z"/><path d="M469,178.46H457.1V159.17H469Zm-7.9-4H465V163.17h-3.9Z"/><path d="M484.33,178.46h-11.9V159.17h11.9Zm-7.9-4h3.9V163.17h-3.9Z"/><path d="M406.15,178.46h-11.9V159.17h11.9Zm-7.9-4h3.9V163.17h-3.9Z"/><path d="M421.44,178.46h-11.9V159.17h11.9Zm-7.9-4h3.9V163.17h-3.9Z"/><path d="M124.6,184.18l-.68-81.84L4.26,100.28l.07-4,117.08,2-40-45.39A2,2,0,0,1,83.8,49.8l69.58,34.49a2,2,0,0,1,1,1L166.5,115a2,2,0,0,1-1.1,2.6,2,2,0,0,1-1.49,0l-36-14.29.67,80.81Zm2.48-85.48L161,112.18,150.93,87.54,91.14,57.9Z"/></g><rect x="7.54" y="181.59" width="154.74" height="4" transform="translate(-0.54 0.25) rotate(-0.17)"/><rect x="272.75" y="181.59" width="258.5" height="4" transform="translate(-0.31 0.69) rotate(-0.1)"/></g></g></svg>