<svg xmlns="http://www.w3.org/2000/svg" viewBox="0 0 178.17 226.13"><defs><style>.cls-1{fill:#c57725;}.cls-2{fill:#6cb548;}.cls-3{fill:#b92429;}</style></defs><title>cookie2</title><g id="Layer_2" data-name="Layer 2"><g id="OBJECTS"><path class="cls-1" d="M83.44,3.29,48.09,65.77a6.48,6.48,0,0,0,5.64,9.67h70.71a6.48,6.48,0,0,0,5.64-9.67L94.72,3.29a6.48,6.48,0,0,0-11.28,0"/><path class="cls-1" d="M89.08,17.53,24.49,131.69a6.48,6.48,0,0,0,5.64,9.67H148a6.48,6.48,0,0,0,5.64-9.67Z"/><path class="cls-1" d="M89.08,41.74.85,197.68a6.48,6.48,0,0,0,5.64,9.67H171.68a6.48,6.48,0,0,0,5.64-9.67Z"/><path class="cls-1" d="M105.55,226.13H72.63a6.48,6.48,0,0,1-6.48-6.48v-20.3H112v20.3a6.48,6.48,0,0,1-6.48,6.48"/><polygon class="cls-2" points="89.08 9.57 121.83 67.44 108.13 67.44 145.43 133.36 131.73 133.36 169.07 199.35 104.03 199.35 104.03 218.13 74.15 218.13 74.15 199.35 9.1 199.35 46.44 133.36 32.74 133.36 70.04 67.44 56.34 67.44 89.08 9.57"/><path class="cls-3" d="M95.17,49.36a6.09,6.09,0,1,1-6.08-6.08A6.08,6.08,0,0,1,95.17,49.36Z"/><path class="cls-3" d="M95.17,85.52a6.09,6.09,0,1,1-6.08-6.08A6.08,6.08,0,0,1,95.17,85.52Z"/><path class="cls-3" d="M95.17,151.44a6.09,6.09,0,1,1-6.08-6.08A6.08,6.08,0,0,1,95.17,151.44Z"/><path class="cls-3" d="M78.44,115.28a6.09,6.09,0,1,1-6.08-6.09A6.08,6.08,0,0,1,78.44,115.28Z"/><path class="cls-3" d="M111.9,115.28a6.09,6.09,0,1,1-6.09-6.09A6.09,6.09,0,0,1,111.9,115.28Z"/><path class="cls-3" d="M78.44,181.27a6.09,6.09,0,1,1-6.08-6.08A6.08,6.08,0,0,1,78.44,181.27Z"/><path class="cls-3" d="M111.9,181.27a6.09,6.09,0,1,1-6.09-6.08A6.09,6.09,0,0,1,111.9,181.27Z"/><path class="cls-3" d="M45,181.27a6.08,6.08,0,1,1-6.08-6.08A6.08,6.08,0,0,1,45,181.27Z"/><path class="cls-3" d="M145.35,181.27a6.08,6.08,0,1,1-6.08-6.08A6.08,6.08,0,0,1,145.35,181.27Z"/><path class="cls-3" d="M128.62,151.44a6.08,6.08,0,1,1-6.08-6.08A6.08,6.08,0,0,1,128.62,151.44Z"/><path class="cls-3" d="M61.71,151.44a6.09,6.09,0,1,1-6.08-6.08A6.08,6.08,0,0,1,61.71,151.44Z"/></g></g></svg>