<svg xmlns="http://www.w3.org/2000/svg" viewBox="0 0 168.23 227.13"><defs><style>.cls-1{fill:#c57725;}.cls-1,.cls-5,.cls-6{stroke:#000;stroke-miterlimit:10;}.cls-2{fill:#f6f6f6;}.cls-3,.cls-4{fill:none;stroke:#f6f6f6;stroke-linecap:round;stroke-linejoin:round;}.cls-3{stroke-width:4px;}.cls-4{stroke-width:5px;}.cls-5{fill:#ee926d;}.cls-6{fill:#d53635;}</style></defs><title>cookie3</title><g id="Layer_2" data-name="Layer 2"><g id="OBJECTS"><path class="cls-1" d="M167.73,101.12a22.94,22.94,0,0,0-22.94-22.94H114a44.58,44.58,0,1,0-59.69,0H23.44a22.94,22.94,0,0,0,0,45.88H47.18L21.05,195.84a22.94,22.94,0,0,0,43.12,15.69l19.94-54.8,20,54.8a22.94,22.94,0,0,0,43.11-15.69l-26.12-71.78h23.74A22.94,22.94,0,0,0,167.73,101.12Z"/><path class="cls-2" d="M75.07,46.62a5.25,5.25,0,1,1-5.25-5.24A5.25,5.25,0,0,1,75.07,46.62Z"/><path class="cls-2" d="M103.64,46.62a5.25,5.25,0,1,1-5.24-5.25A5.23,5.23,0,0,1,103.64,46.62Z"/><path class="cls-3" d="M75.07,58.75a9.11,9.11,0,0,0,18.08,0"/><polyline class="cls-4" points="21.14 119.47 25.73 114.89 21.14 110.3 25.73 105.71 21.15 101.12 25.73 96.53 21.14 91.94 25.73 87.36 21.14 82.77"/><polyline class="cls-4" points="147.08 119.47 142.49 114.89 147.08 110.3 142.49 105.71 147.08 101.12 142.49 96.53 147.08 91.94 142.49 87.36 147.08 82.77"/><polyline class="cls-4" points="109.15 212.12 111.89 206.24 117.78 208.98 120.52 203.1 126.4 205.84 129.14 199.96 135.02 202.7 137.77 196.82 143.65 199.56"/><polyline class="cls-4" points="59.07 212.12 56.33 206.24 50.45 208.98 47.71 203.1 41.83 205.84 39.08 199.96 33.2 202.7 30.46 196.82 24.58 199.56"/><path class="cls-5" d="M92.22,109.93a8.11,8.11,0,1,1-8.11-8.11A8.11,8.11,0,0,1,92.22,109.93Z"/><path class="cls-5" d="M92.22,130.2a8.11,8.11,0,1,1-8.11-8.11A8.11,8.11,0,0,1,92.22,130.2Z"/><path class="cls-6" d="M94.92,82,84.11,88.23,73.3,82a3.29,3.29,0,0,0-5,2.86v9.6a3.29,3.29,0,0,0,5,2.86l10.81-6.24,10.81,6.24a3.3,3.3,0,0,0,5-2.86v-9.6A3.3,3.3,0,0,0,94.92,82Z"/></g></g></svg>