<svg xmlns="http://www.w3.org/2000/svg" viewBox="0 0 206.45 180.54"><defs><style>.cls-1{fill:#c57725;}.cls-2{fill:none;stroke:#fff;stroke-linecap:round;stroke-linejoin:round;stroke-width:5px;}</style></defs><title>cookie4</title><g id="Layer_2" data-name="Layer 2"><g id="OBJECTS"><path class="cls-1" d="M203.21,84.66l-41.9-24.19a6.5,6.5,0,0,1-3.24-5.61V6.49A6.48,6.48,0,0,0,148.35.88L106.46,25.06a6.47,6.47,0,0,1-6.48,0L58.09.88a6.48,6.48,0,0,0-9.72,5.61V54.86a6.45,6.45,0,0,1-3.24,5.61L3.24,84.66a6.48,6.48,0,0,0,0,11.22l41.89,24.19a6.45,6.45,0,0,1,3.24,5.61v48.37a6.48,6.48,0,0,0,9.72,5.61L100,155.48a6.47,6.47,0,0,1,6.48,0l41.89,24.18a6.48,6.48,0,0,0,9.72-5.61V125.68a6.47,6.47,0,0,1,3.24-5.61l41.9-24.19a6.48,6.48,0,0,0,0-11.22"/><line class="cls-2" x1="63.34" y1="21.19" x2="143.1" y2="159.35"/><polyline class="cls-2" points="124.67 147.18 128.28 133.68 141.78 137.3"/><polyline class="cls-2" points="64.67 43.24 78.16 46.86 81.78 33.36"/><line class="cls-2" x1="23.46" y1="90.27" x2="182.99" y2="90.27"/><polyline class="cls-2" points="163.23 100.15 153.35 90.27 163.23 80.39"/><polyline class="cls-2" points="43.22 100.15 53.1 90.27 43.22 80.39"/><line class="cls-2" x1="63.34" y1="159.35" x2="143.1" y2="21.19"/><polyline class="cls-2" points="141.78 43.24 128.29 46.86 124.67 33.36"/><polyline class="cls-2" points="81.78 147.18 78.16 133.68 64.66 137.3"/><polyline class="cls-2" points="128.29 90.27 140.82 111.98 115.76 111.98 103.22 133.68 90.69 111.98 65.63 111.97 78.16 90.27 78.16 90.27 65.63 68.56 90.69 68.56 103.23 46.86 115.76 68.56 140.82 68.56 128.29 90.27"/></g></g></svg>