<svg xmlns="http://www.w3.org/2000/svg" viewBox="0 0 149.47 226.13"><defs><style>.cls-1{fill:#c57725;}.cls-2{fill:#fff;}.cls-3{fill:#502711;}.cls-4{fill:none;stroke:#4f2814;stroke-linecap:round;stroke-linejoin:round;stroke-width:4px;}.cls-5{fill:#e95a0c;}</style></defs><title>cookie5</title><g id="Layer_2" data-name="Layer 2"><g id="OBJECTS"><path class="cls-1" d="M129.79,55.06A55.06,55.06,0,1,1,74.73,0a55.06,55.06,0,0,1,55.06,55.06"/><path class="cls-1" d="M149.47,151.4A74.74,74.74,0,1,1,74.73,76.66a74.74,74.74,0,0,1,74.74,74.74"/><path class="cls-2" d="M74.73,8h0A47.07,47.07,0,0,1,108,88.34,47.06,47.06,0,1,1,74.73,8"/><path class="cls-2" d="M74.74,84.66h0A66.74,66.74,0,1,1,8,151.4,66.82,66.82,0,0,1,74.74,84.66"/><path class="cls-3" d="M65.69,47.65a5.25,5.25,0,1,1-5.24-5.25A5.24,5.24,0,0,1,65.69,47.65Z"/><path class="cls-3" d="M94.27,47.64A5.25,5.25,0,1,1,89,42.4,5.25,5.25,0,0,1,94.27,47.64Z"/><path class="cls-4" d="M65.69,59.77a9.11,9.11,0,0,0,18.08,0"/><path class="cls-5" d="M72.1,48.83,53.68,53.77a1.61,1.61,0,0,0,0,3.12L72.1,61.83a4.19,4.19,0,0,0,5.27-4V52.87a4.19,4.19,0,0,0-5.27-4"/><path class="cls-3" d="M80.82,108.21a6.09,6.09,0,1,1-6.09-6.09A6.09,6.09,0,0,1,80.82,108.21Z"/><path class="cls-3" d="M80.82,126.45a6.09,6.09,0,1,1-6.09-6.08A6.09,6.09,0,0,1,80.82,126.45Z"/><path class="cls-3" d="M80.82,144.7a6.09,6.09,0,1,1-6.09-6.08A6.09,6.09,0,0,1,80.82,144.7Z"/></g></g></svg>