<svg xmlns="http://www.w3.org/2000/svg" viewBox="0 0 180.54 206.45"><defs><style>.cls-1{fill:#c57725;}.cls-2{fill:#b7d4d1;}.cls-3{fill:none;stroke:#fff;stroke-linecap:round;stroke-linejoin:round;stroke-width:5px;}.cls-4{fill:#fff;}</style></defs><title>cookie1</title><g id="Layer_2" data-name="Layer 2"><g id="OBJECTS"><path class="cls-1" d="M174.05,48.37H125.68a6.46,6.46,0,0,1-5.61-3.24L95.88,3.24a6.48,6.48,0,0,0-11.22,0L60.47,45.13a6.45,6.45,0,0,1-5.61,3.24H6.49A6.48,6.48,0,0,0,.88,58.09L25.06,100a6.47,6.47,0,0,1,0,6.48L.88,148.35a6.48,6.48,0,0,0,5.61,9.72H54.86a6.47,6.47,0,0,1,5.61,3.24l24.19,41.9a6.48,6.48,0,0,0,11.22,0l24.19-41.9a6.48,6.48,0,0,1,5.61-3.24h48.37a6.48,6.48,0,0,0,5.61-9.72l-24.18-41.89a6.47,6.47,0,0,1,0-6.48l24.18-41.89a6.48,6.48,0,0,0-5.61-9.72"/><polygon class="cls-2" points="90.27 9.52 115.01 52.37 117.32 56.37 121.94 56.37 171.42 56.37 146.68 99.22 144.37 103.22 146.68 107.22 171.42 150.07 121.94 150.07 117.32 150.07 115.01 154.07 90.27 196.93 65.53 154.07 63.22 150.07 58.6 150.07 9.12 150.07 33.86 107.22 36.17 103.22 33.86 99.22 9.12 56.37 58.6 56.37 63.22 56.37 65.53 52.37 90.27 9.52"/><line class="cls-3" x1="90.27" y1="32.98" x2="90.27" y2="173.47"/><polyline class="cls-3" points="100.15 51.43 90.27 61.31 80.39 51.43"/><polyline class="cls-3" points="74.97 60.83 90.27 76.13 105.57 60.83"/><polyline class="cls-3" points="100.15 155.01 90.27 145.13 80.39 155.01"/><polyline class="cls-3" points="74.97 145.62 90.27 130.32 105.57 145.62"/><line class="cls-3" x1="29.44" y1="68.1" x2="151.1" y2="138.34"/><polyline class="cls-3" points="50.36 68.77 53.97 82.27 40.48 85.88"/><polyline class="cls-3" points="45.9 95.28 66.8 89.67 61.2 68.77"/><polyline class="cls-3" points="140.06 120.56 126.57 124.18 130.18 137.67"/><polyline class="cls-3" points="119.33 137.67 113.73 116.77 134.64 111.17"/><line class="cls-3" x1="29.44" y1="138.34" x2="151.1" y2="68.1"/><polyline class="cls-3" points="40.48 120.56 53.97 124.18 50.36 137.67"/><polyline class="cls-3" points="61.2 137.67 66.8 116.77 45.9 111.17"/><polyline class="cls-3" points="130.18 68.77 126.57 82.27 140.06 85.88"/><polyline class="cls-3" points="134.64 95.28 113.73 89.68 119.33 68.77"/><path class="cls-4" d="M83.5,91.49a3,3,0,0,1-4.4-3.37A3.09,3.09,0,0,1,82.77,86a3,3,0,0,1,.73,5.49Z"/><path class="cls-4" d="M76.73,103.22a3,3,0,0,1-5.12,2.12,3.1,3.1,0,0,1,0-4.24,3,3,0,0,1,5.12,2.12Z"/><path class="cls-4" d="M83.5,115a3,3,0,0,1,1.1,4.1,3,3,0,0,1-1.82,1.4,3.09,3.09,0,0,1-3.67-2.12,3,3,0,0,1,.3-2.28A3,3,0,0,1,83.5,115Z"/><path class="cls-4" d="M97.05,115a3,3,0,0,1,4.1,1.1,3,3,0,0,1,.3,2.27,3.11,3.11,0,0,1-3.68,2.12A3,3,0,0,1,96,119.05a3.08,3.08,0,0,1-.3-2.28A3,3,0,0,1,97.05,115Z"/><path class="cls-4" d="M103.82,103.22a3,3,0,0,1,3-3,3,3,0,0,1,2.12.88,3.08,3.08,0,0,1,0,4.23,3,3,0,0,1-2.12.89,3,3,0,0,1-3-3Z"/><path class="cls-4" d="M97,91.49a3,3,0,0,1-1.1-4.1A3.06,3.06,0,0,1,97.77,86a3.09,3.09,0,0,1,3.67,2.12,3,3,0,0,1-2.12,3.68A3.07,3.07,0,0,1,97,91.49Z"/></g></g></svg>