<svg xmlns="http://www.w3.org/2000/svg" viewBox="0 0 137.11 47.62"><title>due</title><g id="Layer_2" data-name="Layer 2"><g id="Layer_1-2" data-name="Layer 1"><g id="Ebene_1" data-name="Ebene 1"><path d="M116.43,33.91l-17.26-.53-.63-2.73,17,1.78a4.82,4.82,0,0,0-.61-2.1l-.44-.77h1.14V27.2l-2-2V24A296.63,296.63,0,0,0,83.21,1.54c-27-2.29-42.95,3.6-45.32,4.55l0,1.3-2,.5V11.4l1.87-.27-.18,1.3a257.79,257.79,0,0,1,26.66-1v-.72H78.33l-2.14,5.83L60,17.9,58.4,14.25c-3.31-.47-24.18,1-26.31,1.88l0,.05L14.83,24.24l-.72-2.1,17.08-8.65,5.35-.93,0-.22-1.69.24V7.1l2-.5,0-1.18.31-.13C37.33,5.21,53.87-2,83.41.53l.12,0,.1.06c.13.07,12.87,7.87,30.82,22.72l.18.15v1.3l2,2v1.78h.5v2h-1a5.85,5.85,0,0,1,.35,2.87ZM100,32.38l7.49.23-7.62-.79ZM15.37,22.65l.06.18,16-7.49h0c.65-.36,3.07-.9,12.86-1.62,5.78-.43,13.06-.8,14.58-.41l.24.06,1.48,3.46,14.84-1.22,1.42-3.84H65.27v.74h-.52a258.38,258.38,0,0,0-27.68,1l-5.63,1Z"/><path d="M98.73,31.39c-.65-1.92-1.69-5-1.87-5.5l-5.8-7.39.85-8.89,22.46,15-.56.85-21-14-.65,6.79,5.64,7.22c.13.26,1.4,4.05,1.93,5.66Z"/><polygon points="91.57 19.02 90.18 19.02 90.18 9.86 92.21 9.86 92.21 10.88 91.2 10.88 91.2 18 91.57 18 91.57 19.02"/><path d="M86.73,37.84H83.42V25.92a2.21,2.21,0,0,0-1.56-1,3.41,3.41,0,0,0-2.27,1l-.25,12H74.89l.18-21.73h1l-.17,20.7h2.42l.24-11.4.14-.14A4.62,4.62,0,0,1,82,23.87a3.25,3.25,0,0,1,2.4,1.61l.09.13V36.82h1.27V18.05c0-.17-.16-.73-.35-1.53s-.38-1.62-.65-2.59L84.46,13l6.38,2-.3,1-4.61-1.46c.17.64.31,1.23.43,1.73.23,1,.36,1.6.36,1.6v20Z"/><rect x="87.69" y="14.64" width="1.02" height="5.08" transform="translate(39.14 92.46) rotate(-67.92)"/><rect x="87.89" y="16.24" width="1.02" height="4.33" transform="translate(65.52 105.75) rotate(-87.09)"/><rect x="103.28" y="10.31" width="1.02" height="26.71" transform="translate(40.14 109) rotate(-66.13)"/><rect x="115.49" y="29.2" width="1.02" height="0.76"/><polygon points="114.96 37.99 115.1 33.51 116.12 33.54 116.02 36.94 119.82 36.84 119.93 30.23 116.78 30.34 116.74 29.32 120.97 29.18 120.82 37.84 114.96 37.99"/><rect x="116.12" y="31.82" width="4.28" height="1.02" transform="translate(-0.6 2.27) rotate(-1.1)"/><path d="M123.25,37.59h-1V29.47h.52c8.38.16,11.81.72,13.22,1.25l.12-9.5c-1.31-1.09-9.41-7.64-15.38-8.44L121,29.64h-1l-.27-18,.56,0c6.84.51,16.3,8.55,16.7,8.9l.18.15L137,31.66l-1,0a.28.28,0,0,0,0,.13c-.63-.66-7-1.18-12.76-1.32Z"/><path d="M131,16.58l-.92-.46,2-4.09h-3.94c-1.52-.3-2.61,1.63-2.62,1.65l-.9-.49c.06-.11,1.46-2.58,3.67-2.17h5.45Z"/><path d="M120.15,30c-1.69-.16-2-4.1-2.11-5.31l0-.54h.56a7.43,7.43,0,0,1,1.19-3.46l.86.56a6.44,6.44,0,0,0-1.06,3.42v.5h-.45c.18,2,.7,3.77,1.15,3.82Z"/><path d="M124.44,38.21a17.48,17.48,0,0,1-2-.1l.12-1c3.59.43,11.51-.76,13.43-1.07v-4.8h1v5.66l-.42.08A94.37,94.37,0,0,1,124.44,38.21Z"/><path d="M44.62,37.38,42,36.9,35.71,23.46,24.42,26.83V25.32l-9.35-1.21.14-1,10.23,1.32v1l10.83-3.23L42.7,36l.18,0L36.22,21.43h1.57l.37-1.09,18.43-2.76,1.83,2.67L43.35,33.53l.08.18L60.2,19.3l15.15-2.05.14,1-14.85,2L43.52,35ZM37.8,22.45l4.76,10.42,14.5-12.79-1-1.39L38.92,21.26l-.41,1.19Z"/><polygon points="84.46 25.63 83.44 25.63 83.44 24.36 81.78 24.36 81.78 22.2 81.65 22.2 81.65 24.36 79.62 24.36 79.62 25.51 78.6 25.51 78.6 23.34 80.63 23.34 80.63 21.18 82.8 21.18 82.8 23.34 84.46 23.34 84.46 25.63"/><rect x="76.1" y="15.52" width="11.32" height="1.02" transform="translate(65.5 97.75) rotate(-89.84)"/><rect x="82.8" y="18.38" width="1.02" height="1.27"/><rect x="79.74" y="18.13" width="1.02" height="0.89"/><path d="M37.23,12.27l-.18-1c.9-.17,21.88-4,31.76-3.6v-5c-3.66.25-24.72,1.8-31.21,4.81l-.42-.93c7.25-3.36,31.1-4.87,32.11-4.94l.54,0v7.2l-.54,0C59.79,8.09,37.46,12.23,37.23,12.27Z"/><path d="M50.36,47.07V37.66A484,484,0,0,1,.45,33.9l0-1,23.94-1.37V26.14h1v6.33L6.23,33.58c15.6,1.8,31.41,2.85,47.07,3.12h.5v5.67Zm1-9.38V44l1.4-1.91V37.71Z"/><path d="M73,47.62A146.15,146.15,0,0,1,50.8,46C29.45,45.74.71,40.69.42,40.63L0,40.56V33.39H1V39.7c3.64.63,29.94,5,49.88,5.26.43.07,34.93,5.92,59.39-4.9V38h-4.83c-.09,0-12.41.8-24.65,1.41-18.88.93-23.76.78-25.12.43-1.21,1.58-2.46,3.24-2.59,3.46l-.92-.43c.12-.27,1.7-2.35,3-4h0l.41.32.45,0a.37.37,0,0,0-.17-.25c1.77.85,30.6-.66,49.55-1.88h5.88v3.77l-.3.14C99.07,46.22,84.73,47.62,73,47.62Z"/><rect x="53.18" y="38.78" width="2.42" height="1.02" transform="translate(-5.26 8.57) rotate(-8.6)"/><rect x="50.87" y="39.29" width="0.25" height="1.02" transform="translate(-5.64 8.55) rotate(-9.08)"/><path d="M110.72,41.2l-5.54-3.3.09-.16-6.06-.25V32.88h1v3.63L110.8,37l2.4-.15v3.58ZM107,37.82l3.81,2.27,1.34-.45V37.89l-1.37.08Z"/><rect x="85.91" y="36.26" width="1.02" height="0.39" transform="translate(45.69 120.95) rotate(-87.13)"/><rect x="109" y="31.36" width="1.02" height="11.96" transform="translate(69.89 146.04) rotate(-88.8)"/><path d="M121.41,38.24a2,2,0,0,1-1.46-.42l.71-.74s.44.3,1.9,0l.2,1A6.85,6.85,0,0,1,121.41,38.24Z"/><path d="M116.12,32.28V30.1l3.82-.16V32.1Zm1-1.2v.13l1.78-.08V31Z"/><path d="M132.53,30.31,129.8,30l0-.27h-.48V19.94l.62.14c2.41.52,4.85,3,4.95,3.05l.15.15v6.16l-2.54-.76ZM130.37,29l1.14.13V27.31l2.54.76V23.71a12.49,12.49,0,0,0-3.68-2.46Z"/><path d="M68.46,41.92a100,100,0,0,1-14.12-.77l.16-1c.18,0,17.92,2.85,52-2.54l.16,1A246.88,246.88,0,0,1,68.46,41.92Z"/><path d="M72.08,43.8a161,161,0,0,1-18.85-1.12l.12-1a158.23,158.23,0,0,0,54.74-3.05l.24,1A159.17,159.17,0,0,1,72.08,43.8Z"/><path d="M70.63,46c-9.75,0-17.6-.81-18.75-2.07l.76-.69C54.19,45,94.65,47,109,39.3l.48.9C101.68,44.4,84.3,46,70.63,46Z"/><polygon points="88.65 14.7 87.63 14.7 87.63 14.56 86.74 14.56 86.74 6.17 88.65 6.99 88.65 14.7"/><polygon points="129.88 16.4 129.88 15.71 128.97 15.71 128.97 12.79 130.88 12.79 130.9 16.39 129.88 16.4"/><path d="M126.14,14.39l-.44-.92a7,7,0,0,1,3.7-.67l-.1,1A6,6,0,0,0,126.14,14.39Z"/><polygon points="38.03 35.69 37.96 28.26 37.71 27.73 32.68 27.56 32.56 35.18 31.54 35.16 31.68 26.5 38.37 26.72 38.98 28.14 39.05 35.68 38.03 35.69"/><rect x="30.91" y="30.91" width="8.51" height="1.02" transform="translate(3.21 66.1) rotate(-89.12)"/><path d="M98.07,37H93.74v-.51h-.26V29.7h4.59Zm-3.57-1h2.55V30.72H94.5Z"/><rect x="86.23" y="36.76" width="13.48" height="1.02" transform="translate(-0.35 0.89) rotate(-0.55)"/><path d="M55.63,39.62l-.1-1L65,37.76c-13.85-.54-36.61-2-40.09-2.21l-.48,0V31.74h1v2.82c17.4,1.12,42.67,2.52,48.64,2.38l1.29-.11.19,1a5.46,5.46,0,0,1-1.17.12Z"/><rect x="81.01" y="34.79" width="1.02" height="4.84" transform="translate(40.15 116.7) rotate(-87.04)"/><rect x="79.35" y="25.57" width="4.61" height="1.02" transform="translate(-2.82 11.51) rotate(-7.93)"/></g></g></g></svg>